Coordinates
nRows=8
nColumns=38

# SIMM Motion File Header:
name Coordinates
datacolumns 38
datarows 8
otherdata 1
range 1.32400000000000010000 1.33100000000000000000

Units are S.I. units (second, meters, Newtons, ...)
Angles are in degrees.

endheader
time	pelvis_tilt	pelvis_list	pelvis_rotation	pelvis_tx	pelvis_ty	pelvis_tz	hip_flexion_r	hip_adduction_r	hip_rotation_r	knee_angle_r	ankle_angle_r	subtalar_angle_r	mtp_angle_r	hip_flexion_l	hip_adduction_l	hip_rotation_l	knee_angle_l	ankle_angle_l	subtalar_angle_l	mtp_angle_l	lumbar_extension	lumbar_bending	lumbar_rotation	arm_flex_r	arm_add_r	arm_rot_r	elbow_flex_r	pro_sup_r	wrist_flex_r	wrist_dev_r	arm_flex_l	arm_add_l	arm_rot_l	elbow_flex_l	pro_sup_l	wrist_flex_l	wrist_dev_l
      1.32400000000000010000	     -4.32482255226203450000	     -5.24875979275516790000	     -6.52576547298844020000	      1.11145486086635550000	      1.02603129051825890000	     -0.33150852835976663000	     30.91571291825798100000	     11.51336399833697900000	      1.94264782166363540000	    -17.39093051117071600000	    -18.33299882001866300000	      0.00000000000000000000	      0.00000000000000000000	     -6.24978025133232150000	      2.91247457263374980000	     -3.50502401075628580000	    -72.37815971082572700000	    -33.43718816569329300000	      0.00000000000000000000	      0.00000000000000000000	     -5.98885997041366910000	      7.65416643597692130000	     -7.56480562874186010000	    -48.12207850127441600000	     -7.37354047590437480000	    -19.29730771410556800000	     73.57029037433567000000	     59.22839293303985600000	      0.00000000000000000000	      0.00000000000000000000	    -28.95498407064409500000	    -18.19552401997885500000	      5.91376801928695260000	    130.50942450203922000000	     88.08875441208807900000	      0.00000000000000000000	      0.00000000000000000000
      1.32500000000000000000	     -4.21086763088637110000	     -5.30621587952317420000	     -6.56852880063162740000	      1.11135265042566340000	      1.02559482271172930000	     -0.33149257646205138000	     30.74486176009610000000	     11.59582757290809600000	      1.92285584651337030000	    -17.54128348464455600000	    -18.40442470524091300000	     -0.00000000000000000058	     -0.00000000000000000038	     -6.14250537060228470000	      2.80004878321424220000	     -3.68118449741328210000	    -73.06654437317297400000	    -33.31335833789351100000	      0.00000000000000000154	      0.00000000000000000074	     -6.14738815126151210000	      7.72520312037414580000	     -7.43873247266333060000	    -48.04123079842276700000	     -7.36642497626250230000	    -19.25657053957973400000	     73.60949022223229600000	     59.25223227845504700000	      0.00000000000000000018	      0.00000000000000000018	    -29.03228615839280000000	    -18.15547257398495900000	      5.86413578395941130000	    130.18763743321554000000	     88.09505798349010800000	     -0.00000000000000000026	      0.00000000000000000022
      1.32600000000000010000	     -4.09944350650047530000	     -5.36298050871999440000	     -6.61065193381068730000	      1.11125058513546240000	      1.02514511059598920000	     -0.33147730205637971000	     30.57775386025608500000	     11.67736769633410700000	      1.90631134265023920000	    -17.69973524234932000000	    -18.47352604656207500000	     -0.00000000000000000463	     -0.00000000000000000288	     -6.03245032768615450000	      2.68697300266237350000	     -3.85431499888709080000	    -73.75388103227553000000	    -33.18047553509341400000	      0.00000000000000000392	     -0.00000000000000000116	     -6.30254449454520400000	      7.79562397225799590000	     -7.31311957566723780000	    -47.95848450351582700000	     -7.36118471689457810000	    -19.21453762373558800000	     73.64675710020227900000	     59.27959503590170700000	      0.00000000000000000065	      0.00000000000000000045	    -29.11015333872149200000	    -18.11478137713352500000	      5.81357664384205460000	    129.86355878855557000000	     88.10668667697183300000	     -0.00000000000000000087	      0.00000000000000000078
      1.32700000000000000000	     -3.99032093755389730000	     -5.41903816531807440000	     -6.65190720331406650000	      1.11114892290493940000	      1.02468240739555160000	     -0.33146291022192098000	     30.41401626129098500000	     11.75793142210049400000	      1.89317424199337390000	    -17.86618409978735000000	    -18.53585715477244700000	     -0.00000000000000000910	     -0.00000000000000000427	     -5.91983401051389980000	      2.57327538787366760000	     -4.02421742686519220000	    -74.44013930946368900000	    -33.03850818912736300000	      0.00000000000000000727	     -0.00000000000000000228	     -6.45450798806142870000	      7.86540481972187600000	     -7.18818365587154240000	    -47.87378668957336500000	     -7.35780654755291330000	    -19.17119091295109400000	     73.68209005828792600000	     59.31052385891360500000	      0.00000000000000000036	      0.00000000000000000084	    -29.18861619181910800000	    -18.07351106352803400000	      5.76215332110285770000	    129.53724172885043000000	     88.12385169275093200000	     -0.00000000000000000200	      0.00000000000000000101
      1.32800000000000010000	     -3.88241196566098390000	     -5.47451466363838700000	     -6.69175509222153230000	      1.11104807597036270000	      1.02420827622193980000	     -0.33144996750279782000	     30.25223736778492500000	     11.83735555109881200000	      1.88337011628613430000	    -18.04009627350755100000	    -18.59080507778588400000	     -0.00000000000000001372	     -0.00000000000000000592	     -5.80583247316706070000	      2.45890847286160770000	     -4.19047694232268150000	    -75.12513945069851200000	    -32.88753543819894500000	      0.00000000000000001042	     -0.00000000000000000303	     -6.60440839683144180000	      7.93457935225898580000	     -7.06433674040984450000	    -47.78695916057605300000	     -7.35623591133528710000	    -19.12650859286904700000	     73.71551707987924800000	     59.34506300701468000000	     -0.00000000000000000024	      0.00000000000000000173	    -29.26754361182605300000	    -18.03179320147662800000	      5.70994018300500180000	    129.20876684163713000000	     88.14673749670467400000	     -0.00000000000000000308	      0.00000000000000000049
      1.32900000000000000000	     -3.77549960768581580000	     -5.52941344158881880000	     -6.72999195946208670000	      1.11094824750472880000	      1.02372301758262660000	     -0.33143865260834626000	     30.09205383969925100000	     11.91558491824827100000	      1.87696871239598620000	    -18.22123910681268900000	    -18.63723918111984200000	     -0.00000000000000001875	     -0.00000000000000000598	     -5.69064982153567020000	      2.34387913952482530000	     -4.35293304345641290000	    -75.80885905761566300000	    -32.72757582483367100000	      0.00000000000000001638	     -0.00000000000000000374	     -6.75242869166331610000	      8.00314399561596800000	     -6.94176639827765210000	    -47.69795154673554500000	     -7.35644747186254210000	    -19.08047354253423900000	     73.74703347627800600000	     59.38324327654385100000	     -0.00000000000000000163	      0.00000000000000000232	    -29.34694372052957000000	    -17.98969757474717200000	      5.65701661798203940000	    128.87817854238253000000	     88.17557733502792400000	     -0.00000000000000000461	     -0.00000000000000000042
      1.33000000000000010000	     -3.66991722567891850000	     -5.58366724730616680000	     -6.76665985045600490000	      1.11084949460957040000	      1.02322614824767260000	     -0.33142886202902755000	     29.93376761899666100000	     11.99264324073675400000	      1.87411632418070130000	    -18.40955397051049400000	    -18.67447888726977100000	     -0.00000000000000002196	     -0.00000000000000001052	     -5.57388386623875660000	      2.22821894822329240000	     -4.51161847100718470000	    -76.49137031283969200000	    -32.55862321142237200000	      0.00000000000000002386	     -0.00000000000000000214	     -6.89816493811157190000	      8.07107695716396200000	     -6.82048756074095940000	    -47.60679611543609000000	     -7.35843212103631310000	    -19.03307185007027500000	     73.77661284432447500000	     59.42508142580968000000	     -0.00000000000000000384	      0.00000000000000000251	    -29.42690040199424200000	    -17.94725409574280300000	      5.60346545232302250000	    128.54549268122685000000	     88.21062559741058400000	     -0.00000000000000000651	     -0.00000000000000000167
      1.33100000000000000000	     -3.56633395723728030000	     -5.63715630276622550000	     -6.80197462349411190000	      1.11075178619506800000	      1.02271669938306630000	     -0.33142028459107348000	     29.77808698916790700000	     12.06860973234523700000	      1.87503966771818380000	    -18.60511838418046800000	    -18.70175305093652800000	     -0.00000000000000002691	     -0.00000000000000001290	     -5.45476805293311880000	      2.11198338021181750000	     -4.66670560613483240000	    -77.17279753015293400000	    -32.38066937307883100000	      0.00000000000000003163	      0.00000000000000000113	     -7.04085976570038240000	      8.13833192368535130000	     -6.70038914659521630000	    -47.51358256334143000000	     -7.36218429322489950000	    -18.98429066281325800000	     73.80421684986126300000	     59.47058138119182000000	     -0.00000000000000000583	      0.00000000000000000228	    -29.50753862165138100000	    -17.90447309278292600000	      5.54936901430287750000	    128.21070933538988000000	     88.25213680071000500000	     -0.00000000000000000804	     -0.00000000000000000361
